<?xml version="1.0" encoding="UTF-8" standalone="no"?>
<!-- Created by diasvg.py -->
<svg width="28.515cm" height="14.325cm" viewBox="2.001 1.703 30.516 16.028"
 xmlns="http://www.w3.org/2000/svg"
 xmlns:xlink="http://www.w3.org/1999/xlink">
<line x1="24.734" y1="7.197" x2="16.205" y2="7.230" stroke="#000000" stroke-width="0.100" />
<polygon fill="#000000" stroke="none" stroke-width="0.100" points="15.830,7.231 16.329,6.980 16.205,7.230 16.331,7.480 "/>
<polygon fill="none" stroke="#000000" stroke-width="0.100"  points="15.830,7.231 16.329,6.980 16.205,7.230 16.331,7.480 "/>
<text x="18.120" y="7.075"  fill="#000000" text-anchor="start" font-size="0.64" font-family="sans" font-style="normal" font-weight="400">
1. Payment request</text>
<line x1="5.229" y1="2.899" x2="5.229" y2="2.935" stroke="#000000" stroke-width="0.050" stroke-dasharray="0.40,0.40"/>
<line x1="5.229" y1="4.935" x2="5.229" y2="15.853" stroke="#000000" stroke-width="0.050" stroke-dasharray="0.40,0.40"/>
<rect x="4.879" y="2.935" width="0.700" height="2.000" fill="#FFFFFF" stroke="none" stroke-width="0"/>
<rect x="4.879" y="2.935" width="0.700" height="2.000" fill="none" stroke="#000000" stroke-width="0.100" />
<rect x="2.551" y="1.803" width="9.663" height="2.600" fill="#FFFFFF" stroke="none" stroke-width="0"/>
<path stroke="none" fill="#FFFFFF" d ="M 2.551,1.803 A 0.500,0.500 0 0,0 2.051,2.303 "/>
<path stroke="none" fill="#FFFFFF" d ="M 12.713,2.303 A 0.500,0.500 0 0,0 12.213,1.803 "/>
<rect x="2.051" y="2.303" width="10.663" height="1.600" fill="#FFFFFF" stroke="none" stroke-width="0"/>
<path stroke="none" fill="#FFFFFF" d ="M 2.051,3.903 A 0.500,0.500 0 0,0 2.551,4.403 "/>
<path stroke="none" fill="#FFFFFF" d ="M 12.213,4.403 A 0.500,0.500 0 0,0 12.713,3.903 "/>
<line x1="2.551" y1="1.803" x2="12.213" y2="1.803" stroke="#000000" stroke-width="0.100" />
<line x1="2.551" y1="4.403" x2="12.213" y2="4.403" stroke="#000000" stroke-width="0.100" />
<path stroke="#000000" fill="none" stroke-width="0.100"  d ="M 2.551,1.803 A 0.500,0.500 0 0,0 2.051,2.303 "/>
<path stroke="#000000" fill="none" stroke-width="0.100"  d ="M 12.713,2.303 A 0.500,0.500 0 0,0 12.213,1.803 "/>
<line x1="2.051" y1="2.303" x2="2.051" y2="3.903" stroke="#000000" stroke-width="0.100" />
<line x1="12.713" y1="2.303" x2="12.713" y2="3.903" stroke="#000000" stroke-width="0.100" />
<path stroke="#000000" fill="none" stroke-width="0.100"  d ="M 2.051,3.903 A 0.500,0.500 0 0,0 2.551,4.403 "/>
<path stroke="#000000" fill="none" stroke-width="0.100"  d ="M 12.213,4.403 A 0.500,0.500 0 0,0 12.713,3.903 "/>
<text x="7.382" y="2.898"  fill="#000000" text-anchor="middle" font-size="0.80" font-family="sans" font-style="normal" font-weight="400">
Payment Service Provider</text>
<text x="7.382" y="3.698"  fill="#000000" text-anchor="middle" font-size="0.80" font-family="sans" font-style="normal" font-weight="400">
(scheme, provider, bank, etc.)</text>
<line x1="15.539" y1="2.891" x2="15.539" y2="2.926" stroke="#000000" stroke-width="0.050" stroke-dasharray="0.40,0.40"/>
<line x1="15.539" y1="4.926" x2="15.539" y2="15.853" stroke="#000000" stroke-width="0.050" stroke-dasharray="0.40,0.40"/>
<rect x="15.189" y="2.926" width="0.700" height="2.000" fill="#FFFFFF" stroke="none" stroke-width="0"/>
<rect x="15.189" y="2.926" width="0.700" height="2.000" fill="none" stroke="#000000" stroke-width="0.100" />
<rect x="14.089" y="1.753" width="3.000" height="2.600" fill="#FFFFFF" stroke="none" stroke-width="0"/>
<path stroke="none" fill="#FFFFFF" d ="M 14.089,1.753 A 0.500,0.500 0 0,0 13.589,2.253 "/>
<path stroke="none" fill="#FFFFFF" d ="M 17.589,2.253 A 0.500,0.500 0 0,0 17.089,1.753 "/>
<rect x="13.589" y="2.253" width="4.000" height="1.600" fill="#FFFFFF" stroke="none" stroke-width="0"/>
<path stroke="none" fill="#FFFFFF" d ="M 13.589,3.853 A 0.500,0.500 0 0,0 14.089,4.353 "/>
<path stroke="none" fill="#FFFFFF" d ="M 17.089,4.353 A 0.500,0.500 0 0,0 17.589,3.853 "/>
<line x1="14.089" y1="1.753" x2="17.089" y2="1.753" stroke="#000000" stroke-width="0.100" />
<line x1="14.089" y1="4.353" x2="17.089" y2="4.353" stroke="#000000" stroke-width="0.100" />
<path stroke="#000000" fill="none" stroke-width="0.100"  d ="M 14.089,1.753 A 0.500,0.500 0 0,0 13.589,2.253 "/>
<path stroke="#000000" fill="none" stroke-width="0.100"  d ="M 17.589,2.253 A 0.500,0.500 0 0,0 17.089,1.753 "/>
<line x1="13.589" y1="2.253" x2="13.589" y2="3.853" stroke="#000000" stroke-width="0.100" />
<line x1="17.589" y1="2.253" x2="17.589" y2="3.853" stroke="#000000" stroke-width="0.100" />
<path stroke="#000000" fill="none" stroke-width="0.100"  d ="M 13.589,3.853 A 0.500,0.500 0 0,0 14.089,4.353 "/>
<path stroke="#000000" fill="none" stroke-width="0.100"  d ="M 17.089,4.353 A 0.500,0.500 0 0,0 17.589,3.853 "/>
<text x="15.589" y="2.848"  fill="#000000" text-anchor="middle" font-size="0.80" font-family="sans" font-style="normal" font-weight="400">
Browser</text>
<text x="15.589" y="3.648"  fill="#000000" text-anchor="middle" font-size="0.80" font-family="sans" font-style="normal" font-weight="400">
(payer)</text>
<line x1="25.078" y1="2.910" x2="25.078" y2="2.945" stroke="#000000" stroke-width="0.050" stroke-dasharray="0.40,0.40"/>
<line x1="25.078" y1="4.945" x2="25.078" y2="16.003" stroke="#000000" stroke-width="0.050" stroke-dasharray="0.40,0.40"/>
<rect x="24.728" y="2.945" width="0.700" height="2.000" fill="#FFFFFF" stroke="none" stroke-width="0"/>
<rect x="24.728" y="2.945" width="0.700" height="2.000" fill="none" stroke="#000000" stroke-width="0.100" />
<rect x="23.247" y="1.753" width="3.570" height="2.600" fill="#FFFFFF" stroke="none" stroke-width="0"/>
<path stroke="none" fill="#FFFFFF" d ="M 23.247,1.753 A 0.500,0.500 0 0,0 22.747,2.253 "/>
<path stroke="none" fill="#FFFFFF" d ="M 27.317,2.253 A 0.500,0.500 0 0,0 26.817,1.753 "/>
<rect x="22.747" y="2.253" width="4.570" height="1.600" fill="#FFFFFF" stroke="none" stroke-width="0"/>
<path stroke="none" fill="#FFFFFF" d ="M 22.747,3.853 A 0.500,0.500 0 0,0 23.247,4.353 "/>
<path stroke="none" fill="#FFFFFF" d ="M 26.817,4.353 A 0.500,0.500 0 0,0 27.317,3.853 "/>
<line x1="23.247" y1="1.753" x2="26.817" y2="1.753" stroke="#000000" stroke-width="0.100" />
<line x1="23.247" y1="4.353" x2="26.817" y2="4.353" stroke="#000000" stroke-width="0.100" />
<path stroke="#000000" fill="none" stroke-width="0.100"  d ="M 23.247,1.753 A 0.500,0.500 0 0,0 22.747,2.253 "/>
<path stroke="#000000" fill="none" stroke-width="0.100"  d ="M 27.317,2.253 A 0.500,0.500 0 0,0 26.817,1.753 "/>
<line x1="22.747" y1="2.253" x2="22.747" y2="3.853" stroke="#000000" stroke-width="0.100" />
<line x1="27.317" y1="2.253" x2="27.317" y2="3.853" stroke="#000000" stroke-width="0.100" />
<path stroke="#000000" fill="none" stroke-width="0.100"  d ="M 22.747,3.853 A 0.500,0.500 0 0,0 23.247,4.353 "/>
<path stroke="#000000" fill="none" stroke-width="0.100"  d ="M 26.817,4.353 A 0.500,0.500 0 0,0 27.317,3.853 "/>
<text x="25.032" y="2.848"  fill="#000000" text-anchor="middle" font-size="0.80" font-family="sans" font-style="normal" font-weight="400">
Payee</text>
<text x="25.032" y="3.648"  fill="#000000" text-anchor="middle" font-size="0.80" font-family="sans" font-style="normal" font-weight="400">
(merchant)</text>
<line x1="15.789" y1="12.641" x2="24.456" y2="12.609" stroke="#000000" stroke-width="0.100" />
<polygon fill="#000000" stroke="none" stroke-width="0.100" points="24.831,12.608 24.332,12.859 24.456,12.609 24.330,12.359 "/>
<polygon fill="none" stroke="#000000" stroke-width="0.100"  points="24.831,12.608 24.332,12.859 24.456,12.609 24.330,12.359 "/>
<text x="16.267" y="12.328"  fill="#000000" text-anchor="start" font-size="0.64" font-family="sans" font-style="normal" font-weight="400">
3. Payment acknowledgement</text>
<line x1="5.586" y1="11.065" x2="14.631" y2="11.085" stroke="#000000" stroke-width="0.100" />
<polygon fill="#000000" stroke="none" stroke-width="0.100" points="15.006,11.085 14.505,11.334 14.631,11.085 14.506,10.834 "/>
<polygon fill="none" stroke="#000000" stroke-width="0.100"  points="15.006,11.085 14.505,11.334 14.631,11.085 14.506,10.834 "/>
<text x="6.367" y="10.808"  fill="#000000" text-anchor="start" font-size="0.64" font-family="sans" font-style="normal" font-weight="400">
3. Payment acknowledgement</text>
<line x1="15.232" y1="9.191" x2="5.890" y2="9.191" stroke="#000000" stroke-width="0.100" />
<polygon fill="#000000" stroke="none" stroke-width="0.100" points="5.515,9.191 6.015,8.941 5.890,9.191 6.015,9.441 "/>
<polygon fill="none" stroke="#000000" stroke-width="0.100"  points="5.515,9.191 6.015,8.941 5.890,9.191 6.015,9.441 "/>
<text x="6.417" y="8.984"  fill="#000000" text-anchor="start" font-size="0.64" font-family="sans" font-style="normal" font-weight="400">
2. Payment request</text>
<path stroke="#000000" fill="none" stroke-width="0.100"  d="M 25.235,13.592 C 27.074,13.203 27.038,14.865 25.687,14.839 "/>
<polygon fill="#000000" stroke="none" stroke-width="0.100" points="25.312,14.832 25.816,14.592 25.687,14.839 25.807,15.092 "/>
<polygon fill="none" stroke="#000000" stroke-width="0.100"  points="25.312,14.832 25.816,14.592 25.687,14.839 25.807,15.092 "/>
<text x="27.021" y="14.305"  fill="#000000" text-anchor="start" font-size="0.64" font-family="sans" font-style="normal" font-weight="400">
5. Verification</text>
</svg>