<?xml version="1.0" encoding="UTF-8" standalone="no"?>
<!-- Created with Inkscape (http://www.inkscape.org/) -->

<svg
   xmlns:dc="http://purl.org/dc/elements/1.1/"
   xmlns:cc="http://creativecommons.org/ns#"
   xmlns:rdf="http://www.w3.org/1999/02/22-rdf-syntax-ns#"
   xmlns:svg="http://www.w3.org/2000/svg"
   xmlns="http://www.w3.org/2000/svg"
   xmlns:sodipodi="http://sodipodi.sourceforge.net/DTD/sodipodi-0.dtd"
   xmlns:inkscape="http://www.inkscape.org/namespaces/inkscape"
   width="744.09448819"
   height="1052.3622047"
   id="svg2"
   version="1.1"
   inkscape:version="0.48.4 r9939"
   sodipodi:docname="New document 1">
  <defs
     id="defs4" />
  <sodipodi:namedview
     id="base"
     pagecolor="#ffffff"
     bordercolor="#666666"
     borderopacity="1.0"
     inkscape:pageopacity="0.0"
     inkscape:pageshadow="2"
     inkscape:zoom="0.98994949"
     inkscape:cx="214.68077"
     inkscape:cy="816.14046"
     inkscape:document-units="px"
     inkscape:current-layer="layer1"
     showgrid="false"
     inkscape:window-width="1280"
     inkscape:window-height="767"
     inkscape:window-x="142"
     inkscape:window-y="33"
     inkscape:window-maximized="0" />
  <metadata
     id="metadata7">
    <rdf:RDF>
      <cc:Work
         rdf:about="">
        <dc:format>image/svg+xml</dc:format>
        <dc:type
           rdf:resource="http://purl.org/dc/dcmitype/StillImage" />
        <dc:title></dc:title>
      </cc:Work>
    </rdf:RDF>
  </metadata>
  <g
     inkscape:label="Layer 1"
     inkscape:groupmode="layer"
     id="layer1">
    <path
       sodipodi:type="arc"
       style="fill:#000000;fill-opacity:1;fill-rule:nonzero;stroke:none"
       id="path2985"
       sodipodi:cx="415.1727"
       sodipodi:cy="217.4711"
       sodipodi:rx="142.4315"
       sodipodi:ry="134.85536"
       d="m 557.6042,217.4711 a 142.4315,134.85536 0 1 1 -284.863,0 142.4315,134.85536 0 1 1 284.863,0 z"
       transform="matrix(1,0,0,0.84644194,0,12.686312)" />
    <path
       style="fill:none;stroke:#ffffff;stroke-width:12.60000038;stroke-linecap:round;stroke-linejoin:bevel;stroke-miterlimit:4;stroke-opacity:1;stroke-dasharray:none"
       d="m 325.26912,180.60054 c 3.03046,-40.4061 67.03728,-45.41025 68.69037,-11.11168 0.60966,12.64929 0,12.12183 0,12.12183"
       id="path3775"
       inkscape:connector-curvature="0"
       sodipodi:nodetypes="csc" />
    <path
       style="fill:none;stroke:#ffffff;stroke-width:12.60000038;stroke-linecap:round;stroke-linejoin:bevel;stroke-miterlimit:4;stroke-opacity:1;stroke-dasharray:none"
       d="m 504.20159,181.88931 c -3.03046,-40.4061 -67.03727,-45.41025 -68.69036,-11.11168 -0.60966,12.64929 0,12.12183 0,12.12183"
       id="path3775-1"
       inkscape:connector-curvature="0"
       sodipodi:nodetypes="csc" />
    <path
       sodipodi:type="arc"
       style="fill:#000000;fill-opacity:1;fill-rule:nonzero;stroke:#ffffff;stroke-width:12.60000038;stroke-linecap:round;stroke-linejoin:bevel;stroke-miterlimit:4;stroke-opacity:1;stroke-dasharray:none"
       id="path3806"
       sodipodi:cx="438.91129"
       sodipodi:cy="279.09042"
       sodipodi:rx="63.134533"
       sodipodi:ry="39.901024"
       d="m 502.04582,279.09042 a 63.134533,39.901024 0 1 1 -126.26907,0 63.134533,39.901024 0 1 1 126.26907,0 z"
       transform="translate(-23.233509,-29.294424)" />
    <path
       sodipodi:type="arc"
       style="fill:#000000;fill-opacity:1;fill-rule:nonzero;stroke:#ffffff;stroke-width:12.60000038;stroke-linecap:round;stroke-linejoin:bevel;stroke-miterlimit:4;stroke-opacity:1;stroke-dasharray:none"
       id="path3808"
       sodipodi:cx="391.43411"
       sodipodi:cy="264.94827"
       sodipodi:rx="4.5456862"
       sodipodi:ry="10.606602"
       d="m 395.9798,264.94827 a 4.5456862,10.606602 0 1 1 -9.09137,0 4.5456862,10.606602 0 1 1 9.09137,0 z"
       transform="translate(4.0406102,-15.152288)" />
    <path
       transform="translate(39.901024,-15.657363)"
       sodipodi:type="arc"
       style="fill:#000000;fill-opacity:1;fill-rule:nonzero;stroke:#ffffff;stroke-width:12.60000038;stroke-linecap:round;stroke-linejoin:bevel;stroke-miterlimit:4;stroke-opacity:1;stroke-dasharray:none"
       id="path3808-5"
       sodipodi:cx="391.43411"
       sodipodi:cy="264.94827"
       sodipodi:rx="4.5456862"
       sodipodi:ry="10.606602"
       d="m 395.9798,264.94827 a 4.5456862,10.606602 0 1 1 -9.09137,0 4.5456862,10.606602 0 1 1 9.09137,0 z" />
    <path
       style="fill:#000000;fill-opacity:1;stroke:#000000;stroke-width:1.41814053px;stroke-linecap:butt;stroke-linejoin:miter;stroke-opacity:1"
       d="m 499.58474,129.57536 c 0,0 42.63299,16.02847 53.37169,3.50718 10.73873,-12.52128 41.33276,-61.188544 41.33276,-61.188544 l -93.13885,3.876725 c 0,0 -22.7574,7.425053 -21.51365,19.734029 1.24374,12.30898 19.94805,34.07061 19.94805,34.07061 z"
       id="path3830"
       inkscape:connector-curvature="0"
       sodipodi:nodetypes="csccsc" />
    <path
       style="fill:#000000;fill-opacity:1;stroke:#000000;stroke-width:1.46235597px;stroke-linecap:butt;stroke-linejoin:miter;stroke-opacity:1"
       d="m 336.52452,128.48134 c 0,0 -45.49054,12.9935 -55.51147,-0.64549 -10.02096,-13.63898 -37.44194,-65.767725 -37.44194,-65.767725 l 96.00505,11.336803 c 0,0 22.89535,9.386015 20.54022,21.859048 -2.35513,12.473044 -23.59186,33.217364 -23.59186,33.217364 z"
       id="path3830-5"
       inkscape:connector-curvature="0"
       sodipodi:nodetypes="csccsc" />
  </g>
</svg>
