<?xml version="1.0" encoding="UTF-8" standalone="no"?>
<!-- Created with Inkscape (http://www.inkscape.org/) -->

<svg
   xmlns:dc="http://purl.org/dc/elements/1.1/"
   xmlns:cc="http://creativecommons.org/ns#"
   xmlns:rdf="http://www.w3.org/1999/02/22-rdf-syntax-ns#"
   xmlns:svg="http://www.w3.org/2000/svg"
   xmlns="http://www.w3.org/2000/svg"
   xmlns:sodipodi="http://sodipodi.sourceforge.net/DTD/sodipodi-0.dtd"
   xmlns:inkscape="http://www.inkscape.org/namespaces/inkscape"
   width="140"
   height="70"
   id="svg2"
   version="1.1"
   inkscape:version="0.47 r22583"
   sodipodi:docname="db-logo-single.svg"
   sodipodi:version="0.32"
   inkscape:output_extension="org.inkscape.output.svg.inkscape">
  <defs
     id="defs4">
    <inkscape:perspective
       sodipodi:type="inkscape:persp3d"
       inkscape:vp_x="0 : 526.18109 : 1"
       inkscape:vp_y="0 : 1000 : 0"
       inkscape:vp_z="744.09448 : 526.18109 : 1"
       inkscape:persp3d-origin="372.04724 : 350.78739 : 1"
       id="perspective10" />
    <inkscape:perspective
       id="perspective3624"
       inkscape:persp3d-origin="0.5 : 0.33333333 : 1"
       inkscape:vp_z="1 : 0.5 : 1"
       inkscape:vp_y="0 : 1000 : 0"
       inkscape:vp_x="0 : 0.5 : 1"
       sodipodi:type="inkscape:persp3d" />
  </defs>
  <sodipodi:namedview
     id="base"
     pagecolor="#ffffff"
     bordercolor="#666666"
     borderopacity="1.0"
     inkscape:pageopacity="0.0"
     inkscape:pageshadow="2"
     inkscape:zoom="3.8669902"
     inkscape:cx="59.198945"
     inkscape:cy="39.413497"
     inkscape:document-units="px"
     inkscape:current-layer="layer1"
     showgrid="false"
     inkscape:showpageshadow="false"
     inkscape:window-width="1674"
     inkscape:window-height="976"
     inkscape:window-x="0"
     inkscape:window-y="0"
     inkscape:window-maximized="1"
     showborder="true" />
  <metadata
     id="metadata7">
    <rdf:RDF>
      <cc:Work
         rdf:about="">
        <dc:format>image/svg+xml</dc:format>
        <dc:type
           rdf:resource="http://purl.org/dc/dcmitype/StillImage" />
        <dc:title></dc:title>
      </cc:Work>
    </rdf:RDF>
  </metadata>
  <g
     inkscape:label="Layer 1"
     inkscape:groupmode="layer"
     id="layer1"
     transform="translate(-224.64976,-121.80609)">
    <path
       inkscape:export-ydpi="180"
       inkscape:export-xdpi="180"
       inkscape:export-filename="C:\Users\mjohnson\Documents\work\payswarm\db-logo.png"
       id="path3651"
       d="m 279.64976,121.80609 0,10 10,0 0,-10 -10,0 z m 10,10 -10,0 30,0 -10,0 -10,0 z m 10,0 10,0 0,-10 -10,0 0,10 z"
       style="fill:#0169c9;fill-opacity:1;stroke:none"
       sodipodi:nodetypes="ccccccccccccccc" />
    <path
       inkscape:export-ydpi="180"
       inkscape:export-xdpi="180"
       inkscape:export-filename="C:\Users\mjohnson\Documents\work\payswarm\db-logo.png"
       id="path3653"
       d="m 228.64976,131.80609 c -2.216,0 -4,1.784 -4,4 l 0,52 c 0,2.216 1.784,4 4,4 l 132,0 c 2.216,0 4,-1.784 4,-4 l 0,-52 c 0,-2.216 -1.784,-4 -4,-4 l -132,0 z"
       style="fill:#0169c9;fill-opacity:1;stroke:none"
       sodipodi:nodetypes="ccccccccc" />
    <path
       style="fill:#ffffff;fill-opacity:1;stroke:none"
       d="m 279.64976,131.80609 10,0 -10,0 z m 10,0 0,20 0,20 0,10 -10,0 c -11.0457,0 -20,-8.95431 -20,-20 0,-11.0457 8.9543,-20 20,-20 l 0,-10 30,0 0,10 c 11.04569,0 20,8.9543 20,20 0,11.04569 -8.95431,20 -20,20 l -10,0 0,-10 0,-20 0,-20 -10,0 z m 10,0 10,0 -10,0 z m -20,20 c -5.52286,0 -10,4.47715 -10,10 0,5.52284 4.47714,10 10,10 l 0,-20 z m 30,0 0,20 c 5.52285,0 10,-4.47716 10,-10 0,-5.52285 -4.47715,-10 -10,-10 z"
       id="path3648-8"
       inkscape:export-filename="C:\Users\mjohnson\Documents\work\payswarm\db-logo.png"
       inkscape:export-xdpi="180"
       inkscape:export-ydpi="180"
       sodipodi:nodetypes="ccccccccsccccsccccccccccsccccsc" />
  </g>
</svg>
